<?xml version="1.0" encoding="UTF-8"?>
<svg xmlns="http://www.w3.org/2000/svg" xmlns:xlink="http://www.w3.org/1999/xlink" width="132.44" height="85.84" viewBox="-6.02 -77.32 132.44 85.84">
<defs>
<style type="text/css">
.l65d44 {stroke: #2B3D26; fill: #2B3D26; fill-opacity: 0.5;}
.l67d44 {stroke: #875692; fill: #875692; fill-opacity: 0.5;}
.l93d44 {stroke: #008856; fill: #008856; fill-opacity: 0.5;}
.l66d44 {stroke: #F3C300; fill: #F3C300; fill-opacity: 0.5;}
.l68d44 {stroke: #F38400; fill: #F38400; fill-opacity: 0.5;}
.l95d20 {stroke: #654522; fill: #654522; fill-opacity: 0.5;}
.l94d20 {stroke: #8DB600; fill: #8DB600; fill-opacity: 0.5;}
.l69d16 {stroke: #2B3D26; fill: #2B3D26; fill-opacity: 0.5;}
.l68d16 {stroke: #E25822; fill: #E25822; fill-opacity: 0.5;}
.l64d20 {stroke: #848482; fill: #848482; fill-opacity: 0.5;}
.l65d20 {stroke: #008856; fill: #008856; fill-opacity: 0.5;}
.l66d20 {stroke: #E68FAC; fill: #E68FAC; fill-opacity: 0.5;}
.l67d20 {stroke: #0067A5; fill: #0067A5; fill-opacity: 0.5;}
.l67d16 {stroke: #654522; fill: #654522; fill-opacity: 0.5;}
.l68d20 {stroke: #F99379; fill: #F99379; fill-opacity: 0.5;}
.l69d20 {stroke: #604E97; fill: #604E97; fill-opacity: 0.5;}
.l69t16 {stroke: none; fill: #2B3D26;}
.l68t16 {stroke: none; fill: #E25822;}
.l67t16 {stroke: none; fill: #654522;}
</style>
<g id="MOSEnd_1">
<polygon id="0x6476a931e3f0" class="l64d20" points="0,12.9 0,0 103.2,0 103.2,12.9"/>
</g>
<g id="MOSConn_1">
<polygon id="0x6476a8f03440" class="l64d20" points="-3.45,17.2 -3.45,0 20.65,0 20.65,17.2"/>
<polygon id="0x6476a92eb250" class="l65d20" points="-2.15,12.05 -2.15,6.55 19.35,6.55 19.35,12.05"/>
<polygon id="0x6476a92eb320" class="l66d20" points="14.3,13.35 14.3,4.55 11.5,4.55 11.5,13.35 10,13.35 10,4.55 7.2,4.55 7.2,13.35 5.7,13.35 5.7,4.55 2.9,4.55 2.9,13.35 1.4,13.35 1.4,1.05 15.8,1.05 15.8,13.35"/>
<polygon id="0x6476a929d380" class="l67d20" points="3.45,4.45 3.45,4.15 2.9,4.15 2.9,1.45 3.45,1.45 3.45,1.15 5.15,1.15 5.15,1.45 5.7,1.45 5.7,4.15 5.15,4.15 5.15,4.45"/>
<polygon id="0x6476a929d3f0" class="l67d20" points="12.05,4.45 12.05,4.15 11.5,4.15 11.5,1.45 12.05,1.45 12.05,1.15 13.75,1.15 13.75,1.45 14.3,1.45 14.3,4.15 13.75,4.15 13.75,4.45"/>
<polygon id="0x6476a929d460" class="l67d20" points="-0.85,10.95 -0.85,7.65 0.85,7.65 0.85,10.95"/>
<polygon id="0x6476a92b0400" class="l67d20" points="3.45,10.95 3.45,7.65 5.15,7.65 5.15,10.95"/>
<polygon id="0x6476a92b04d0" class="l67d20" points="7.75,10.95 7.75,7.65 9.45,7.65 9.45,10.95"/>
<polygon id="0x6476a928caa0" class="l67d20" points="12.05,10.95 12.05,7.65 13.75,7.65 13.75,10.95"/>
<polygon id="0x6476a928cc00" class="l67d20" points="16.35,10.95 16.35,7.65 18.05,7.65 18.05,10.95"/>
<polygon id="0x6476a92f0fb0" class="l94d20" points="-3.45,13.35 -3.45,5.25 20.65,5.25 20.65,13.35"/>
<polygon id="0x6476a92f1080" class="l66d44" points="-0.85,10.15 -0.85,8.45 0.85,8.45 0.85,10.15"/>
<polygon id="0x6476a92777a0" class="l66d44" points="3.45,10.15 3.45,8.45 5.15,8.45 5.15,10.15"/>
<polygon id="0x6476a9277870" class="l66d44" points="7.75,10.15 7.75,8.45 9.45,8.45 9.45,10.15"/>
<polygon id="0x6476a92b4420" class="l66d44" points="12.05,10.15 12.05,8.45 13.75,8.45 13.75,10.15"/>
<polygon id="0x6476a92b44f0" class="l66d44" points="16.35,10.15 16.35,8.45 18.05,8.45 18.05,10.15"/>
<polygon id="0x6476a929c700" class="l95d20" points="2.45,4.65 2.45,0.95 6.15,0.95 6.15,4.65"/>
<polygon id="0x6476a92fb830" class="l95d20" points="11.05,4.65 11.05,0.95 14.75,0.95 14.75,4.65"/>
<polygon id="0x6476a92fb900" class="l67d20" points="2.9,1.45 5.7,1.45 5.7,4.15 2.9,4.15"/>
<polygon id="0x6476a92a2780" class="l66d20" points="3.45,1.15 5.15,1.15 5.15,4.45 3.45,4.45"/>
<polygon id="0x6476a92a2850" class="l66d44" points="3.45,1.95 5.15,1.95 5.15,3.65 3.45,3.65"/>
<polygon id="0x6476a92decc0" class="l67d20" points="11.5,1.45 14.3,1.45 14.3,4.15 11.5,4.15"/>
<polygon id="0x6476a92ded90" class="l66d20" points="12.05,1.15 13.75,1.15 13.75,4.45 12.05,4.45"/>
<polygon id="0x6476a92c83f0" class="l66d44" points="12.05,1.95 13.75,1.95 13.75,3.65 12.05,3.65"/>
</g>
<g id="InvCore_1">
<polygon id="0x6476a9316250" class="l68d20" points="-1.45,2.5 -1.45,-2.5 35.85,-2.5 35.85,2.5"/>
<polygon id="0x6476a9316320" class="l68d20" points="2.85,15.4 2.85,10.4 31.55,10.4 31.55,15.4"/>
<polygon id="0x6476a93163f0" class="l68d20" points="2.85,39.05 2.85,34.05 31.55,34.05 31.55,39.05"/>
<polygon id="0x6476a93164c0" class="l68d20" points="2.85,58.4 2.85,53.4 31.55,53.4 31.55,58.4"/>
<polygon id="0x6476a9316590" class="l68d20" points="-1.45,71.3 -1.45,66.3 35.85,66.3 35.85,71.3"/>
<polygon id="0x6476a9316660" class="l69d20" points="14.75,58.4 14.75,10.4 19.65,10.4 19.65,58.4"/>
<polygon id="0x6476a9316730" class="l67d20" points="-0.85,23.1 -0.85,-2.5 0.85,-2.5 0.85,23.1"/>
<polygon id="0x6476a9316800" class="l67d20" points="3.45,23.1 3.45,10.4 5.15,10.4 5.15,23.1"/>
<polygon id="0x6476a93168d0" class="l67d20" points="7.75,23.1 7.75,-2.5 9.45,-2.5 9.45,23.1"/>
<polygon id="0x6476a9316a30" class="l67d20" points="12.05,23.1 12.05,10.4 13.75,10.4 13.75,23.1"/>
<polygon id="0x6476a9316b00" class="l67d20" points="16.35,23.1 16.35,-2.5 18.05,-2.5 18.05,23.1"/>
<polygon id="0x6476a9316bd0" class="l67d20" points="20.65,23.1 20.65,10.4 22.35,10.4 22.35,23.1"/>
<polygon id="0x6476a9316ca0" class="l67d20" points="24.95,23.1 24.95,-2.5 26.65,-2.5 26.65,23.1"/>
<polygon id="0x6476a9316d70" class="l67d20" points="29.25,23.1 29.25,10.4 30.95,10.4 30.95,23.1"/>
<polygon id="0x6476a9316e40" class="l67d20" points="33.55,23.1 33.55,-2.5 35.25,-2.5 35.25,23.1"/>
<polygon id="0x6476a9316f10" class="l67d20" points="3.45,43.15 3.45,25.65 5.15,25.65 5.15,43.15"/>
<polygon id="0x6476a9316fe0" class="l67d20" points="12.05,43.15 12.05,25.65 13.75,25.65 13.75,43.15"/>
<polygon id="0x6476a93171c0" class="l67d20" points="20.65,43.15 20.65,25.65 22.35,25.65 22.35,43.15"/>
<polygon id="0x6476a9317290" class="l67d20" points="29.25,43.15 29.25,25.65 30.95,25.65 30.95,43.15"/>
<polygon id="0x6476a9317360" class="l67d20" points="3.45,58.4 3.45,46.35 5.15,46.35 5.15,58.4"/>
<polygon id="0x6476a9317430" class="l67d20" points="12.05,58.4 12.05,46.35 13.75,46.35 13.75,58.4"/>
<polygon id="0x6476a9317500" class="l67d20" points="20.65,58.4 20.65,46.35 22.35,46.35 22.35,58.4"/>
<polygon id="0x6476a93175d0" class="l67d20" points="29.25,58.4 29.25,46.35 30.95,46.35 30.95,58.4"/>
<polygon id="0x6476a93176a0" class="l67d20" points="-0.85,71.3 -0.85,46.35 0.85,46.35 0.85,71.3"/>
<polygon id="0x6476a9317770" class="l67d20" points="7.75,71.3 7.75,46.35 9.45,46.35 9.45,71.3"/>
<polygon id="0x6476a9317840" class="l67d20" points="16.35,71.3 16.35,46.35 18.05,46.35 18.05,71.3"/>
<polygon id="0x6476a9317910" class="l67d20" points="24.95,71.3 24.95,46.35 26.65,46.35 26.65,71.3"/>
<polygon id="0x6476a93179e0" class="l67d20" points="33.55,71.3 33.55,46.35 35.25,46.35 35.25,71.3"/>
<polygon id="0x6476a9317ab0" class="l67d20" points="3.45,53.4 5.15,53.4 5.15,58.4 3.45,58.4"/>
<polygon id="0x6476a9317b80" class="l68d20" points="2.85,53.4 5.75,53.4 5.75,58.4 2.85,58.4"/>
<polygon id="0x6476a9317c50" class="l67d44" points="3.45,55.05 5.15,55.05 5.15,56.75 3.45,56.75"/>
<polygon id="0x6476a9317d20" class="l67d20" points="12.05,53.4 13.75,53.4 13.75,58.4 12.05,58.4"/>
<polygon id="0x6476a9317df0" class="l68d20" points="11.45,53.4 14.35,53.4 14.35,58.4 11.45,58.4"/>
<polygon id="0x6476a93170b0" class="l67d44" points="12.05,55.05 13.75,55.05 13.75,56.75 12.05,56.75"/>
<polygon id="0x6476a93180d0" class="l67d20" points="20.65,53.4 22.35,53.4 22.35,58.4 20.65,58.4"/>
<polygon id="0x6476a93181a0" class="l68d20" points="20.05,53.4 22.95,53.4 22.95,58.4 20.05,58.4"/>
<polygon id="0x6476a9318270" class="l67d44" points="20.65,55.05 22.35,55.05 22.35,56.75 20.65,56.75"/>
<polygon id="0x6476a9318340" class="l67d20" points="29.25,53.4 30.95,53.4 30.95,58.4 29.25,58.4"/>
<polygon id="0x6476a9318410" class="l68d20" points="28.65,53.4 31.55,53.4 31.55,58.4 28.65,58.4"/>
<polygon id="0x6476a93184e0" class="l67d44" points="29.25,55.05 30.95,55.05 30.95,56.75 29.25,56.75"/>
<polygon id="0x6476a93185b0" class="l67d20" points="3.45,10.4 5.15,10.4 5.15,15.4 3.45,15.4"/>
<polygon id="0x6476a9318680" class="l68d20" points="2.85,10.4 5.75,10.4 5.75,15.4 2.85,15.4"/>
<polygon id="0x6476a9318750" class="l67d44" points="3.45,12.05 5.15,12.05 5.15,13.75 3.45,13.75"/>
<polygon id="0x6476a9318820" class="l67d20" points="12.05,10.4 13.75,10.4 13.75,15.4 12.05,15.4"/>
<polygon id="0x6476a93188f0" class="l68d20" points="11.45,10.4 14.35,10.4 14.35,15.4 11.45,15.4"/>
<polygon id="0x6476a93189c0" class="l67d44" points="12.05,12.05 13.75,12.05 13.75,13.75 12.05,13.75"/>
<polygon id="0x6476a9318a90" class="l67d20" points="20.65,10.4 22.35,10.4 22.35,15.4 20.65,15.4"/>
<polygon id="0x6476a9318b60" class="l68d20" points="20.05,10.4 22.95,10.4 22.95,15.4 20.05,15.4"/>
<polygon id="0x6476a9318c30" class="l67d44" points="20.65,12.05 22.35,12.05 22.35,13.75 20.65,13.75"/>
<polygon id="0x6476a9318d00" class="l67d20" points="29.25,10.4 30.95,10.4 30.95,15.4 29.25,15.4"/>
<polygon id="0x6476a9318dd0" class="l68d20" points="28.65,10.4 31.55,10.4 31.55,15.4 28.65,15.4"/>
<polygon id="0x6476a9318ea0" class="l67d44" points="29.25,12.05 30.95,12.05 30.95,13.75 29.25,13.75"/>
<polygon id="0x6476a9318f70" class="l68d20" points="14.75,10.4 19.65,10.4 19.65,15.4 14.75,15.4"/>
<polygon id="0x6476a9319040" class="l69d20" points="14.75,10.4 19.65,10.4 19.65,15.4 14.75,15.4"/>
<polygon id="0x6476a9319110" class="l68d44" points="16.45,12.15 17.95,12.15 17.95,13.65 16.45,13.65"/>
<polygon id="0x6476a93191e0" class="l68d20" points="14.75,53.4 19.65,53.4 19.65,58.4 14.75,58.4"/>
<polygon id="0x6476a93192b0" class="l69d20" points="14.75,53.4 19.65,53.4 19.65,58.4 14.75,58.4"/>
<polygon id="0x6476a9319380" class="l68d44" points="16.45,55.15 17.95,55.15 17.95,56.65 16.45,56.65"/>
<polygon id="0x6476a9319450" class="l67d20" points="3.45,34.05 5.15,34.05 5.15,39.05 3.45,39.05"/>
<polygon id="0x6476a9319520" class="l68d20" points="2.85,34.05 5.75,34.05 5.75,39.05 2.85,39.05"/>
<polygon id="0x6476a93195f0" class="l67d44" points="3.45,35.7 5.15,35.7 5.15,37.4 3.45,37.4"/>
<polygon id="0x6476a93196c0" class="l67d20" points="12.05,34.05 13.75,34.05 13.75,39.05 12.05,39.05"/>
<polygon id="0x6476a9319790" class="l68d20" points="11.45,34.05 14.35,34.05 14.35,39.05 11.45,39.05"/>
<polygon id="0x6476a9319860" class="l67d44" points="12.05,35.7 13.75,35.7 13.75,37.4 12.05,37.4"/>
<polygon id="0x6476a9319930" class="l67d20" points="20.65,34.05 22.35,34.05 22.35,39.05 20.65,39.05"/>
<polygon id="0x6476a9319e10" class="l68d20" points="20.05,34.05 22.95,34.05 22.95,39.05 20.05,39.05"/>
<polygon id="0x6476a9319ee0" class="l67d44" points="20.65,35.7 22.35,35.7 22.35,37.4 20.65,37.4"/>
<polygon id="0x6476a9319fb0" class="l67d20" points="29.25,34.05 30.95,34.05 30.95,39.05 29.25,39.05"/>
<polygon id="0x6476a931a080" class="l68d20" points="28.65,34.05 31.55,34.05 31.55,39.05 28.65,39.05"/>
<polygon id="0x6476a931a150" class="l67d44" points="29.25,35.7 30.95,35.7 30.95,37.4 29.25,37.4"/>
<polygon id="0x6476a931a220" class="l67d20" points="-0.85,-2.5 0.85,-2.5 0.85,2.5 -0.85,2.5"/>
<polygon id="0x6476a931a2f0" class="l68d20" points="-1.45,-2.5 1.45,-2.5 1.45,2.5 -1.45,2.5"/>
<polygon id="0x6476a931a3c0" class="l67d44" points="-0.85,-0.85 0.85,-0.85 0.85,0.85 -0.85,0.85"/>
<polygon id="0x6476a931a490" class="l67d20" points="7.75,-2.5 9.45,-2.5 9.45,2.5 7.75,2.5"/>
<polygon id="0x6476a931a560" class="l68d20" points="7.15,-2.5 10.05,-2.5 10.05,2.5 7.15,2.5"/>
<polygon id="0x6476a931a630" class="l67d44" points="7.75,-0.85 9.45,-0.85 9.45,0.85 7.75,0.85"/>
<polygon id="0x6476a931a700" class="l67d20" points="16.35,-2.5 18.05,-2.5 18.05,2.5 16.35,2.5"/>
<polygon id="0x6476a931a7d0" class="l68d20" points="15.75,-2.5 18.65,-2.5 18.65,2.5 15.75,2.5"/>
<polygon id="0x6476a931a8a0" class="l67d44" points="16.35,-0.85 18.05,-0.85 18.05,0.85 16.35,0.85"/>
<polygon id="0x6476a931a970" class="l67d20" points="24.95,-2.5 26.65,-2.5 26.65,2.5 24.95,2.5"/>
<polygon id="0x6476a931aa40" class="l68d20" points="24.35,-2.5 27.25,-2.5 27.25,2.5 24.35,2.5"/>
<polygon id="0x6476a931ab10" class="l67d44" points="24.95,-0.85 26.65,-0.85 26.65,0.85 24.95,0.85"/>
<polygon id="0x6476a931abe0" class="l67d20" points="33.55,-2.5 35.25,-2.5 35.25,2.5 33.55,2.5"/>
<polygon id="0x6476a931acb0" class="l68d20" points="32.95,-2.5 35.85,-2.5 35.85,2.5 32.95,2.5"/>
<polygon id="0x6476a931ad80" class="l67d44" points="33.55,-0.85 35.25,-0.85 35.25,0.85 33.55,0.85"/>
<polygon id="0x6476a931ae50" class="l67d20" points="-0.85,66.3 0.85,66.3 0.85,71.3 -0.85,71.3"/>
<polygon id="0x6476a931af20" class="l68d20" points="-1.45,66.3 1.45,66.3 1.45,71.3 -1.45,71.3"/>
<polygon id="0x6476a931aff0" class="l67d44" points="-0.85,67.95 0.85,67.95 0.85,69.65 -0.85,69.65"/>
<polygon id="0x6476a931b0c0" class="l67d20" points="7.75,66.3 9.45,66.3 9.45,71.3 7.75,71.3"/>
<polygon id="0x6476a931b190" class="l68d20" points="7.15,66.3 10.05,66.3 10.05,71.3 7.15,71.3"/>
<polygon id="0x6476a931b260" class="l67d44" points="7.75,67.95 9.45,67.95 9.45,69.65 7.75,69.65"/>
<polygon id="0x6476a931b330" class="l67d20" points="16.35,66.3 18.05,66.3 18.05,71.3 16.35,71.3"/>
<polygon id="0x6476a931b400" class="l68d20" points="15.75,66.3 18.65,66.3 18.65,71.3 15.75,71.3"/>
<polygon id="0x6476a931b4d0" class="l67d44" points="16.35,67.95 18.05,67.95 18.05,69.65 16.35,69.65"/>
<polygon id="0x6476a931b5a0" class="l67d20" points="24.95,66.3 26.65,66.3 26.65,71.3 24.95,71.3"/>
<polygon id="0x6476a931b670" class="l68d20" points="24.35,66.3 27.25,66.3 27.25,71.3 24.35,71.3"/>
<polygon id="0x6476a931b740" class="l67d44" points="24.95,67.95 26.65,67.95 26.65,69.65 24.95,69.65"/>
<polygon id="0x6476a931b810" class="l67d20" points="33.55,66.3 35.25,66.3 35.25,71.3 33.55,71.3"/>
<polygon id="0x6476a931b8e0" class="l68d20" points="32.95,66.3 35.85,66.3 35.85,71.3 32.95,71.3"/>
<polygon id="0x6476a931b9b0" class="l67d44" points="33.55,67.95 35.25,67.95 35.25,69.65 33.55,69.65"/>
<use transform="translate(0 30.1) scale(1 -1)" xlink:href="#MOSConn_2"/>
<use transform="translate(0 38.7)" xlink:href="#MOSConn_3"/>
</g>
<g id="MOSRowEdge_1">
<polygon id="0x6476a931c8c0" class="l64d20" points="0,17.2 0,0 8.6,0 8.6,17.2"/>
</g>
<g id="MOSCorner_1">
<polygon id="0x6476a931e670" class="l64d20" points="0,12.9 0,0 8.6,0 8.6,12.9"/>
</g>
<g id="InvChainCoreTap">
<use transform="translate(25.8 0)" xlink:href="#InvChainCore"/>
<use transform="translate(0 30.1) scale(1 -1)" xlink:href="#MOSTap"/>
<use transform="translate(103.2 30.1) rotate(180)" xlink:href="#MOSTap"/>
<use transform="translate(90.3 38.7) rotate(180) scale(1 -1)" xlink:href="#MOSTap_1"/>
<use transform="translate(12.9 38.7)" xlink:href="#MOSTap_1"/>
</g>
<g id="MOSSpace_4">
<polygon id="0x6476a931dcb0" class="l64d20" points="0,17.2 0,0 8.6,0 8.6,17.2"/>
</g>
<g id="MOSSpace_1">
</g>
<g id="InvChainCore">
<polygon id="0x6476a931bc40" class="l68d20" points="-1.45,2.5 -1.45,-2.5 53.05,-2.5 53.05,2.5"/>
<polygon id="0x6476a931bd10" class="l68d20" points="6.15,39.05 6.15,34.05 48.75,34.05 48.75,39.05"/>
<polygon id="0x6476a931bde0" class="l68d20" points="-1.45,71.3 -1.45,66.3 53.05,66.3 53.05,71.3"/>
<polygon id="0x6476a931beb0" class="l69d20" points="6.15,51.95 6.15,16.85 11.05,16.85 11.05,51.95"/>
<polygon id="0x6476a931bf80" class="l68d20" points="6.15,34.05 11.05,34.05 11.05,39.05 6.15,39.05"/>
<polygon id="0x6476a931c050" class="l69d20" points="6.15,34.05 11.05,34.05 11.05,39.05 6.15,39.05"/>
<polygon id="0x6476a931c120" class="l68d44" points="7.85,35.8 9.35,35.8 9.35,37.3 7.85,37.3"/>
<use transform="translate(0 0)" xlink:href="#InvCore"/>
<use transform="translate(17.2 0)" xlink:href="#InvCore_1"/>
</g>
<g id="MOSTap">
<polygon id="0x6476a931c2b0" class="l65d44" points="-2.05,10.75 -2.05,6.55 6.35,6.55 6.35,10.75"/>
<polygon id="0x6476a931c380" class="l67d20" points="-0.85,10.3 -0.85,7 0.85,7 0.85,10.3"/>
<polygon id="0x6476a931c450" class="l67d20" points="3.45,10.3 3.45,7 5.15,7 5.15,10.3"/>
<polygon id="0x6476a931c520" class="l94d20" points="-3.35,12.05 -3.35,5.25 7.65,5.25 7.65,12.05"/>
<polygon id="0x6476a931c5f0" class="l66d44" points="-0.85,9.5 -0.85,7.8 0.85,7.8 0.85,9.5"/>
<polygon id="0x6476a931c710" class="l66d44" points="3.45,9.5 3.45,7.8 5.15,7.8 5.15,9.5"/>
</g>
<g id="MOSConn_2">
<polygon id="0x6476a9311380" class="l65d20" points="-2.15,10.75 -2.15,6.55 36.55,6.55 36.55,10.75"/>
<polygon id="0x6476a9311450" class="l66d20" points="31.5,12.05 31.5,4.55 28.7,4.55 28.7,12.05 27.2,12.05 27.2,4.55 24.4,4.55 24.4,12.05 22.9,12.05 22.9,4.55 20.1,4.55 20.1,12.05 18.6,12.05 18.6,4.55 15.8,4.55 15.8,12.05 14.3,12.05 14.3,4.55 11.5,4.55 11.5,12.05 10,12.05 10,4.55 7.2,4.55 7.2,12.05 5.7,12.05 5.7,4.55 2.9,4.55 2.9,12.05 1.4,12.05 1.4,1.05 33,1.05 33,12.05"/>
<polygon id="0x6476a93114c0" class="l67d20" points="3.45,4.45 3.45,4.15 2.9,4.15 2.9,1.45 3.45,1.45 3.45,1.15 5.15,1.15 5.15,1.45 5.7,1.45 5.7,4.15 5.15,4.15 5.15,4.45"/>
<polygon id="0x6476a9311610" class="l67d20" points="12.05,4.45 12.05,4.15 11.5,4.15 11.5,1.45 12.05,1.45 12.05,1.15 13.75,1.15 13.75,1.45 14.3,1.45 14.3,4.15 13.75,4.15 13.75,4.45"/>
<polygon id="0x6476a9311760" class="l67d20" points="20.65,4.45 20.65,4.15 20.1,4.15 20.1,1.45 20.65,1.45 20.65,1.15 22.35,1.15 22.35,1.45 22.9,1.45 22.9,4.15 22.35,4.15 22.35,4.45"/>
<polygon id="0x6476a93118b0" class="l67d20" points="29.25,4.45 29.25,4.15 28.7,4.15 28.7,1.45 29.25,1.45 29.25,1.15 30.95,1.15 30.95,1.45 31.5,1.45 31.5,4.15 30.95,4.15 30.95,4.45"/>
<polygon id="0x6476a9311a00" class="l67d20" points="-0.85,10.3 -0.85,7 0.85,7 0.85,10.3"/>
<polygon id="0x6476a9311ad0" class="l67d20" points="3.45,10.3 3.45,7 5.15,7 5.15,10.3"/>
<polygon id="0x6476a9311ba0" class="l67d20" points="7.75,10.3 7.75,7 9.45,7 9.45,10.3"/>
<polygon id="0x6476a9311d00" class="l67d20" points="12.05,10.3 12.05,7 13.75,7 13.75,10.3"/>
<polygon id="0x6476a9311dd0" class="l67d20" points="16.35,10.3 16.35,7 18.05,7 18.05,10.3"/>
<polygon id="0x6476a9311ea0" class="l67d20" points="20.65,10.3 20.65,7 22.35,7 22.35,10.3"/>
<polygon id="0x6476a9311f70" class="l67d20" points="24.95,10.3 24.95,7 26.65,7 26.65,10.3"/>
<polygon id="0x6476a9312040" class="l67d20" points="29.25,10.3 29.25,7 30.95,7 30.95,10.3"/>
<polygon id="0x6476a9312110" class="l67d20" points="33.55,10.3 33.55,7 35.25,7 35.25,10.3"/>
<polygon id="0x6476a93121e0" class="l93d44" points="-3.45,12.05 -3.45,5.25 37.85,5.25 37.85,12.05"/>
<polygon id="0x6476a93122b0" class="l66d44" points="-0.85,9.5 -0.85,7.8 0.85,7.8 0.85,9.5"/>
<polygon id="0x6476a9312490" class="l66d44" points="3.45,9.5 3.45,7.8 5.15,7.8 5.15,9.5"/>
<polygon id="0x6476a9312560" class="l66d44" points="7.75,9.5 7.75,7.8 9.45,7.8 9.45,9.5"/>
<polygon id="0x6476a9312630" class="l66d44" points="12.05,9.5 12.05,7.8 13.75,7.8 13.75,9.5"/>
<polygon id="0x6476a9312700" class="l66d44" points="16.35,9.5 16.35,7.8 18.05,7.8 18.05,9.5"/>
<polygon id="0x6476a93127d0" class="l66d44" points="20.65,9.5 20.65,7.8 22.35,7.8 22.35,9.5"/>
<polygon id="0x6476a93128a0" class="l66d44" points="24.95,9.5 24.95,7.8 26.65,7.8 26.65,9.5"/>
<polygon id="0x6476a9312970" class="l66d44" points="29.25,9.5 29.25,7.8 30.95,7.8 30.95,9.5"/>
<polygon id="0x6476a9312a40" class="l66d44" points="33.55,9.5 33.55,7.8 35.25,7.8 35.25,9.5"/>
<polygon id="0x6476a9312b10" class="l95d20" points="2.45,4.65 2.45,0.95 6.15,0.95 6.15,4.65"/>
<polygon id="0x6476a9312be0" class="l95d20" points="11.05,4.65 11.05,0.95 14.75,0.95 14.75,4.65"/>
<polygon id="0x6476a9312cb0" class="l95d20" points="19.65,4.65 19.65,0.95 23.35,0.95 23.35,4.65"/>
<polygon id="0x6476a9312d80" class="l95d20" points="28.25,4.65 28.25,0.95 31.95,0.95 31.95,4.65"/>
<polygon id="0x6476a9312e50" class="l67d20" points="2.9,1.45 5.7,1.45 5.7,4.15 2.9,4.15"/>
<polygon id="0x6476a9312f20" class="l66d20" points="3.45,1.15 5.15,1.15 5.15,4.45 3.45,4.45"/>
<polygon id="0x6476a9312ff0" class="l66d44" points="3.45,1.95 5.15,1.95 5.15,3.65 3.45,3.65"/>
<polygon id="0x6476a93130c0" class="l67d20" points="11.5,1.45 14.3,1.45 14.3,4.15 11.5,4.15"/>
<polygon id="0x6476a9312380" class="l66d20" points="12.05,1.15 13.75,1.15 13.75,4.45 12.05,4.45"/>
<polygon id="0x6476a93133a0" class="l66d44" points="12.05,1.95 13.75,1.95 13.75,3.65 12.05,3.65"/>
<polygon id="0x6476a9313470" class="l67d20" points="20.1,1.45 22.9,1.45 22.9,4.15 20.1,4.15"/>
<polygon id="0x6476a9313540" class="l66d20" points="20.65,1.15 22.35,1.15 22.35,4.45 20.65,4.45"/>
<polygon id="0x6476a9313610" class="l66d44" points="20.65,1.95 22.35,1.95 22.35,3.65 20.65,3.65"/>
<polygon id="0x6476a93136e0" class="l67d20" points="28.7,1.45 31.5,1.45 31.5,4.15 28.7,4.15"/>
<polygon id="0x6476a93137b0" class="l66d20" points="29.25,1.15 30.95,1.15 30.95,4.45 29.25,4.45"/>
<polygon id="0x6476a9313880" class="l66d44" points="29.25,1.95 30.95,1.95 30.95,3.65 29.25,3.65"/>
</g>
<g id="MOSEnd">
</g>
<g id="MOSSpace_5">
<polygon id="0x6476a931de70" class="l64d20" points="0,17.2 0,0 12.9,0 12.9,17.2"/>
</g>
<g id="MOSTap_1">
<polygon id="0x6476a931c930" class="l64d20" points="-3.35,17.2 -3.35,0 7.65,0 7.65,17.2"/>
<polygon id="0x6476a931ca00" class="l65d44" points="-2.05,12.05 -2.05,6.55 6.35,6.55 6.35,12.05"/>
<polygon id="0x6476a931cad0" class="l67d20" points="-0.85,10.95 -0.85,7.65 0.85,7.65 0.85,10.95"/>
<polygon id="0x6476a931cba0" class="l67d20" points="3.45,10.95 3.45,7.65 5.15,7.65 5.15,10.95"/>
<polygon id="0x6476a931cc70" class="l93d44" points="-3.35,13.35 -3.35,5.25 7.65,5.25 7.65,13.35"/>
<polygon id="0x6476a931cd40" class="l66d44" points="-0.85,10.15 -0.85,8.45 0.85,8.45 0.85,10.15"/>
<polygon id="0x6476a931ce10" class="l66d44" points="3.45,10.15 3.45,8.45 5.15,8.45 5.15,10.15"/>
</g>
<g id="MOSConn_3">
<polygon id="0x6476a93139f0" class="l64d20" points="-3.45,17.2 -3.45,0 37.85,0 37.85,17.2"/>
<polygon id="0x6476a9313ac0" class="l65d20" points="-2.15,12.05 -2.15,6.55 36.55,6.55 36.55,12.05"/>
<polygon id="0x6476a9313b90" class="l66d20" points="31.5,13.35 31.5,4.55 28.7,4.55 28.7,13.35 27.2,13.35 27.2,4.55 24.4,4.55 24.4,13.35 22.9,13.35 22.9,4.55 20.1,4.55 20.1,13.35 18.6,13.35 18.6,4.55 15.8,4.55 15.8,13.35 14.3,13.35 14.3,4.55 11.5,4.55 11.5,13.35 10,13.35 10,4.55 7.2,4.55 7.2,13.35 5.7,13.35 5.7,4.55 2.9,4.55 2.9,13.35 1.4,13.35 1.4,1.05 33,1.05 33,13.35"/>
<polygon id="0x6476a9313c00" class="l67d20" points="3.45,4.45 3.45,4.15 2.9,4.15 2.9,1.45 3.45,1.45 3.45,1.15 5.15,1.15 5.15,1.45 5.7,1.45 5.7,4.15 5.15,4.15 5.15,4.45"/>
<polygon id="0x6476a9313d50" class="l67d20" points="12.05,4.45 12.05,4.15 11.5,4.15 11.5,1.45 12.05,1.45 12.05,1.15 13.75,1.15 13.75,1.45 14.3,1.45 14.3,4.15 13.75,4.15 13.75,4.45"/>
<polygon id="0x6476a9313ea0" class="l67d20" points="20.65,4.45 20.65,4.15 20.1,4.15 20.1,1.45 20.65,1.45 20.65,1.15 22.35,1.15 22.35,1.45 22.9,1.45 22.9,4.15 22.35,4.15 22.35,4.45"/>
<polygon id="0x6476a9313ff0" class="l67d20" points="29.25,4.45 29.25,4.15 28.7,4.15 28.7,1.45 29.25,1.45 29.25,1.15 30.95,1.15 30.95,1.45 31.5,1.45 31.5,4.15 30.95,4.15 30.95,4.45"/>
<polygon id="0x6476a9314140" class="l67d20" points="-0.85,10.95 -0.85,7.65 0.85,7.65 0.85,10.95"/>
<polygon id="0x6476a9314210" class="l67d20" points="3.45,10.95 3.45,7.65 5.15,7.65 5.15,10.95"/>
<polygon id="0x6476a9314370" class="l67d20" points="7.75,10.95 7.75,7.65 9.45,7.65 9.45,10.95"/>
<polygon id="0x6476a9314440" class="l67d20" points="12.05,10.95 12.05,7.65 13.75,7.65 13.75,10.95"/>
<polygon id="0x6476a9314510" class="l67d20" points="16.35,10.95 16.35,7.65 18.05,7.65 18.05,10.95"/>
<polygon id="0x6476a93145e0" class="l67d20" points="20.65,10.95 20.65,7.65 22.35,7.65 22.35,10.95"/>
<polygon id="0x6476a93146b0" class="l67d20" points="24.95,10.95 24.95,7.65 26.65,7.65 26.65,10.95"/>
<polygon id="0x6476a9314780" class="l67d20" points="29.25,10.95 29.25,7.65 30.95,7.65 30.95,10.95"/>
<polygon id="0x6476a9314850" class="l67d20" points="33.55,10.95 33.55,7.65 35.25,7.65 35.25,10.95"/>
<polygon id="0x6476a9314920" class="l94d20" points="-3.45,13.35 -3.45,5.25 37.85,5.25 37.85,13.35"/>
<polygon id="0x6476a9314b00" class="l66d44" points="-0.85,10.15 -0.85,8.45 0.85,8.45 0.85,10.15"/>
<polygon id="0x6476a9314bd0" class="l66d44" points="3.45,10.15 3.45,8.45 5.15,8.45 5.15,10.15"/>
<polygon id="0x6476a9314ca0" class="l66d44" points="7.75,10.15 7.75,8.45 9.45,8.45 9.45,10.15"/>
<polygon id="0x6476a9314d70" class="l66d44" points="12.05,10.15 12.05,8.45 13.75,8.45 13.75,10.15"/>
<polygon id="0x6476a9314e40" class="l66d44" points="16.35,10.15 16.35,8.45 18.05,8.45 18.05,10.15"/>
<polygon id="0x6476a9314f10" class="l66d44" points="20.65,10.15 20.65,8.45 22.35,8.45 22.35,10.15"/>
<polygon id="0x6476a9314fe0" class="l66d44" points="24.95,10.15 24.95,8.45 26.65,8.45 26.65,10.15"/>
<polygon id="0x6476a93150b0" class="l66d44" points="29.25,10.15 29.25,8.45 30.95,8.45 30.95,10.15"/>
<polygon id="0x6476a9315180" class="l66d44" points="33.55,10.15 33.55,8.45 35.25,8.45 35.25,10.15"/>
<polygon id="0x6476a9315250" class="l95d20" points="2.45,4.65 2.45,0.95 6.15,0.95 6.15,4.65"/>
<polygon id="0x6476a9315320" class="l95d20" points="11.05,4.65 11.05,0.95 14.75,0.95 14.75,4.65"/>
<polygon id="0x6476a93153f0" class="l95d20" points="19.65,4.65 19.65,0.95 23.35,0.95 23.35,4.65"/>
<polygon id="0x6476a93154c0" class="l95d20" points="28.25,4.65 28.25,0.95 31.95,0.95 31.95,4.65"/>
<polygon id="0x6476a9315590" class="l67d20" points="2.9,1.45 5.7,1.45 5.7,4.15 2.9,4.15"/>
<polygon id="0x6476a9315660" class="l66d20" points="3.45,1.15 5.15,1.15 5.15,4.45 3.45,4.45"/>
<polygon id="0x6476a9315730" class="l66d44" points="3.45,1.95 5.15,1.95 5.15,3.65 3.45,3.65"/>
<polygon id="0x6476a93149f0" class="l67d20" points="11.5,1.45 14.3,1.45 14.3,4.15 11.5,4.15"/>
<polygon id="0x6476a9315a10" class="l66d20" points="12.05,1.15 13.75,1.15 13.75,4.45 12.05,4.45"/>
<polygon id="0x6476a9315ae0" class="l66d44" points="12.05,1.95 13.75,1.95 13.75,3.65 12.05,3.65"/>
<polygon id="0x6476a9315bb0" class="l67d20" points="20.1,1.45 22.9,1.45 22.9,4.15 20.1,4.15"/>
<polygon id="0x6476a9315c80" class="l66d20" points="20.65,1.15 22.35,1.15 22.35,4.45 20.65,4.45"/>
<polygon id="0x6476a9315d50" class="l66d44" points="20.65,1.95 22.35,1.95 22.35,3.65 20.65,3.65"/>
<polygon id="0x6476a9315e20" class="l67d20" points="28.7,1.45 31.5,1.45 31.5,4.15 28.7,4.15"/>
<polygon id="0x6476a9315ef0" class="l66d20" points="29.25,1.15 30.95,1.15 30.95,4.45 29.25,4.45"/>
<polygon id="0x6476a9315fc0" class="l66d44" points="29.25,1.95 30.95,1.95 30.95,3.65 29.25,3.65"/>
</g>
<g id="MOSConn">
<polygon id="0x6476a92cb8d0" class="l65d20" points="-2.15,10.75 -2.15,6.55 19.35,6.55 19.35,10.75"/>
<polygon id="0x6476a92a2370" class="l66d20" points="14.3,12.05 14.3,4.55 11.5,4.55 11.5,12.05 10,12.05 10,4.55 7.2,4.55 7.2,12.05 5.7,12.05 5.7,4.55 2.9,4.55 2.9,12.05 1.4,12.05 1.4,1.05 15.8,1.05 15.8,12.05"/>
<polygon id="0x6476a9286250" class="l67d20" points="3.45,4.45 3.45,4.15 2.9,4.15 2.9,1.45 3.45,1.45 3.45,1.15 5.15,1.15 5.15,1.45 5.7,1.45 5.7,4.15 5.15,4.15 5.15,4.45"/>
<polygon id="0x6476a9296b60" class="l67d20" points="12.05,4.45 12.05,4.15 11.5,4.15 11.5,1.45 12.05,1.45 12.05,1.15 13.75,1.15 13.75,1.45 14.3,1.45 14.3,4.15 13.75,4.15 13.75,4.45"/>
<polygon id="0x6476a929f6b0" class="l67d20" points="-0.85,10.3 -0.85,7 0.85,7 0.85,10.3"/>
<polygon id="0x6476a92fd940" class="l67d20" points="3.45,10.3 3.45,7 5.15,7 5.15,10.3"/>
<polygon id="0x6476a93051c0" class="l67d20" points="7.75,10.3 7.75,7 9.45,7 9.45,10.3"/>
<polygon id="0x6476a92afa60" class="l67d20" points="12.05,10.3 12.05,7 13.75,7 13.75,10.3"/>
<polygon id="0x6476a927dfb0" class="l67d20" points="16.35,10.3 16.35,7 18.05,7 18.05,10.3"/>
<polygon id="0x6476a92cf030" class="l93d44" points="-3.45,12.05 -3.45,5.25 20.65,5.25 20.65,12.05"/>
<polygon id="0x6476a92d88f0" class="l66d44" points="-0.85,9.5 -0.85,7.8 0.85,7.8 0.85,9.5"/>
<polygon id="0x6476a92974c0" class="l66d44" points="3.45,9.5 3.45,7.8 5.15,7.8 5.15,9.5"/>
<polygon id="0x6476a929cca0" class="l66d44" points="7.75,9.5 7.75,7.8 9.45,7.8 9.45,9.5"/>
<polygon id="0x6476a92d2600" class="l66d44" points="12.05,9.5 12.05,7.8 13.75,7.8 13.75,9.5"/>
<polygon id="0x6476a928ed30" class="l66d44" points="16.35,9.5 16.35,7.8 18.05,7.8 18.05,9.5"/>
<polygon id="0x6476a8f040d0" class="l95d20" points="2.45,4.65 2.45,0.95 6.15,0.95 6.15,4.65"/>
<polygon id="0x6476a92b1480" class="l95d20" points="11.05,4.65 11.05,0.95 14.75,0.95 14.75,4.65"/>
<polygon id="0x6476a9306330" class="l67d20" points="2.9,1.45 5.7,1.45 5.7,4.15 2.9,4.15"/>
<polygon id="0x6476a9306400" class="l66d20" points="3.45,1.15 5.15,1.15 5.15,4.45 3.45,4.45"/>
<polygon id="0x6476a92b57e0" class="l66d44" points="3.45,1.95 5.15,1.95 5.15,3.65 3.45,3.65"/>
<polygon id="0x6476a927cf50" class="l67d20" points="11.5,1.45 14.3,1.45 14.3,4.15 11.5,4.15"/>
<polygon id="0x6476a927d020" class="l66d20" points="12.05,1.15 13.75,1.15 13.75,4.45 12.05,4.45"/>
<polygon id="0x6476a9307d10" class="l66d44" points="12.05,1.95 13.75,1.95 13.75,3.65 12.05,3.65"/>
</g>
<g id="MOSSpace_2">
<polygon id="0x6476a931d930" class="l64d20" points="0,17.2 0,0 12.9,0 12.9,17.2"/>
</g>
<g id="MOSCorner">
</g>
<g id="InvCore">
<polygon id="0x6476a928d980" class="l68d20" points="-1.45,2.5 -1.45,-2.5 18.65,-2.5 18.65,2.5"/>
<polygon id="0x6476a928d9f0" class="l68d20" points="2.85,21.85 2.85,16.85 14.35,16.85 14.35,21.85"/>
<polygon id="0x6476a92a43b0" class="l68d20" points="2.85,32.6 2.85,27.6 14.35,27.6 14.35,32.6"/>
<polygon id="0x6476a92a4480" class="l68d20" points="2.85,51.95 2.85,46.95 14.35,46.95 14.35,51.95"/>
<polygon id="0x6476a92a6cc0" class="l68d20" points="-1.45,71.3 -1.45,66.3 18.65,66.3 18.65,71.3"/>
<polygon id="0x6476a92a6d90" class="l69d20" points="6.15,51.95 6.15,16.85 11.05,16.85 11.05,51.95"/>
<polygon id="0x6476a92a6e60" class="l67d20" points="-0.85,23.1 -0.85,-2.5 0.85,-2.5 0.85,23.1"/>
<polygon id="0x6476a92ba9a0" class="l67d20" points="3.45,23.1 3.45,16.85 5.15,16.85 5.15,23.1"/>
<polygon id="0x6476a92baa70" class="l67d20" points="7.75,23.1 7.75,-2.5 9.45,-2.5 9.45,23.1"/>
<polygon id="0x6476a92baae0" class="l67d20" points="12.05,23.1 12.05,16.85 13.75,16.85 13.75,23.1"/>
<polygon id="0x6476a92fcaf0" class="l67d20" points="16.35,23.1 16.35,-2.5 18.05,-2.5 18.05,23.1"/>
<polygon id="0x6476a930e8c0" class="l67d20" points="3.45,43.15 3.45,25.65 5.15,25.65 5.15,43.15"/>
<polygon id="0x6476a930e990" class="l67d20" points="12.05,43.15 12.05,25.65 13.75,25.65 13.75,43.15"/>
<polygon id="0x6476a930ea60" class="l67d20" points="3.45,51.95 3.45,46.35 5.15,46.35 5.15,51.95"/>
<polygon id="0x6476a930eb30" class="l67d20" points="12.05,51.95 12.05,46.35 13.75,46.35 13.75,51.95"/>
<polygon id="0x6476a930ec00" class="l67d20" points="-0.85,71.3 -0.85,46.35 0.85,46.35 0.85,71.3"/>
<polygon id="0x6476a930ecd0" class="l67d20" points="7.75,71.3 7.75,46.35 9.45,46.35 9.45,71.3"/>
<polygon id="0x6476a930eeb0" class="l67d20" points="16.35,71.3 16.35,46.35 18.05,46.35 18.05,71.3"/>
<polygon id="0x6476a930ef80" class="l67d20" points="3.45,46.95 5.15,46.95 5.15,51.95 3.45,51.95"/>
<polygon id="0x6476a930f050" class="l68d20" points="2.85,46.95 5.75,46.95 5.75,51.95 2.85,51.95"/>
<polygon id="0x6476a930f120" class="l67d44" points="3.45,48.6 5.15,48.6 5.15,50.3 3.45,50.3"/>
<polygon id="0x6476a930f1f0" class="l67d20" points="12.05,46.95 13.75,46.95 13.75,51.95 12.05,51.95"/>
<polygon id="0x6476a930f2c0" class="l68d20" points="11.45,46.95 14.35,46.95 14.35,51.95 11.45,51.95"/>
<polygon id="0x6476a930f390" class="l67d44" points="12.05,48.6 13.75,48.6 13.75,50.3 12.05,50.3"/>
<polygon id="0x6476a930f460" class="l67d20" points="3.45,16.85 5.15,16.85 5.15,21.85 3.45,21.85"/>
<polygon id="0x6476a930f530" class="l68d20" points="2.85,16.85 5.75,16.85 5.75,21.85 2.85,21.85"/>
<polygon id="0x6476a930f600" class="l67d44" points="3.45,18.5 5.15,18.5 5.15,20.2 3.45,20.2"/>
<polygon id="0x6476a930f6d0" class="l67d20" points="12.05,16.85 13.75,16.85 13.75,21.85 12.05,21.85"/>
<polygon id="0x6476a930f7a0" class="l68d20" points="11.45,16.85 14.35,16.85 14.35,21.85 11.45,21.85"/>
<polygon id="0x6476a930f870" class="l67d44" points="12.05,18.5 13.75,18.5 13.75,20.2 12.05,20.2"/>
<polygon id="0x6476a930f940" class="l68d20" points="6.15,16.85 11.05,16.85 11.05,21.85 6.15,21.85"/>
<polygon id="0x6476a930fa10" class="l69d20" points="6.15,16.85 11.05,16.85 11.05,21.85 6.15,21.85"/>
<polygon id="0x6476a930fae0" class="l68d44" points="7.85,18.6 9.35,18.6 9.35,20.1 7.85,20.1"/>
<polygon id="0x6476a930eda0" class="l68d20" points="6.15,46.95 11.05,46.95 11.05,51.95 6.15,51.95"/>
<polygon id="0x6476a930fdc0" class="l69d20" points="6.15,46.95 11.05,46.95 11.05,51.95 6.15,51.95"/>
<polygon id="0x6476a930fe90" class="l68d44" points="7.85,48.7 9.35,48.7 9.35,50.2 7.85,50.2"/>
<polygon id="0x6476a930ff60" class="l67d20" points="3.45,27.6 5.15,27.6 5.15,32.6 3.45,32.6"/>
<polygon id="0x6476a9310030" class="l68d20" points="2.85,27.6 5.75,27.6 5.75,32.6 2.85,32.6"/>
<polygon id="0x6476a9310100" class="l67d44" points="3.45,29.25 5.15,29.25 5.15,30.95 3.45,30.95"/>
<polygon id="0x6476a93101d0" class="l67d20" points="12.05,27.6 13.75,27.6 13.75,32.6 12.05,32.6"/>
<polygon id="0x6476a93102a0" class="l68d20" points="11.45,27.6 14.35,27.6 14.35,32.6 11.45,32.6"/>
<polygon id="0x6476a9310370" class="l67d44" points="12.05,29.25 13.75,29.25 13.75,30.95 12.05,30.95"/>
<polygon id="0x6476a9310440" class="l67d20" points="-0.85,-2.5 0.85,-2.5 0.85,2.5 -0.85,2.5"/>
<polygon id="0x6476a9310510" class="l68d20" points="-1.45,-2.5 1.45,-2.5 1.45,2.5 -1.45,2.5"/>
<polygon id="0x6476a93105e0" class="l67d44" points="-0.85,-0.85 0.85,-0.85 0.85,0.85 -0.85,0.85"/>
<polygon id="0x6476a93106b0" class="l67d20" points="7.75,-2.5 9.45,-2.5 9.45,2.5 7.75,2.5"/>
<polygon id="0x6476a9310780" class="l68d20" points="7.15,-2.5 10.05,-2.5 10.05,2.5 7.15,2.5"/>
<polygon id="0x6476a9310850" class="l67d44" points="7.75,-0.85 9.45,-0.85 9.45,0.85 7.75,0.85"/>
<polygon id="0x6476a9310920" class="l67d20" points="16.35,-2.5 18.05,-2.5 18.05,2.5 16.35,2.5"/>
<polygon id="0x6476a93109f0" class="l68d20" points="15.75,-2.5 18.65,-2.5 18.65,2.5 15.75,2.5"/>
<polygon id="0x6476a9310ac0" class="l67d44" points="16.35,-0.85 18.05,-0.85 18.05,0.85 16.35,0.85"/>
<polygon id="0x6476a9310b90" class="l67d20" points="-0.85,66.3 0.85,66.3 0.85,71.3 -0.85,71.3"/>
<polygon id="0x6476a9310c60" class="l68d20" points="-1.45,66.3 1.45,66.3 1.45,71.3 -1.45,71.3"/>
<polygon id="0x6476a9310d30" class="l67d44" points="-0.85,67.95 0.85,67.95 0.85,69.65 -0.85,69.65"/>
<polygon id="0x6476a9310e00" class="l67d20" points="7.75,66.3 9.45,66.3 9.45,71.3 7.75,71.3"/>
<polygon id="0x6476a9310ed0" class="l68d20" points="7.15,66.3 10.05,66.3 10.05,71.3 7.15,71.3"/>
<polygon id="0x6476a9310fa0" class="l67d44" points="7.75,67.95 9.45,67.95 9.45,69.65 7.75,69.65"/>
<polygon id="0x6476a9311070" class="l67d20" points="16.35,66.3 18.05,66.3 18.05,71.3 16.35,71.3"/>
<polygon id="0x6476a9311140" class="l68d20" points="15.75,66.3 18.65,66.3 18.65,71.3 15.75,71.3"/>
<polygon id="0x6476a9311210" class="l67d44" points="16.35,67.95 18.05,67.95 18.05,69.65 16.35,69.65"/>
<use transform="translate(0 30.1) scale(1 -1)" xlink:href="#MOSConn"/>
<use transform="translate(0 38.7)" xlink:href="#MOSConn_1"/>
</g>
<g id="MOSRowEdge">
</g>
<g id="MOSSpace">
</g>
<g id="MOSSpace_3">
<polygon id="0x6476a931daf0" class="l64d20" points="0,17.2 0,0 8.6,0 8.6,17.2"/>
</g>
</defs>
<rect x="-6.02" y="-77.32" width="132.44" height="85.84" fill="#222222" stroke="none"/>
<g id="AA_inv_chain" transform="scale(1 -1)">
<polygon id="0x6476a93202f0" class="l68d16" points="32.95,66.3 87.45,66.3 87.45,71.3 32.95,71.3"/>
<polygon id="0x6476a9320570" class="l68d16" points="32.95,-2.5 87.45,-2.5 87.45,2.5 32.95,2.5"/>
<polygon id="0x6476a93207c0" class="l68d16" points="37.25,27.6 48.75,27.6 48.75,32.6 37.25,32.6"/>
<polygon id="0x6476a9320a10" class="l69d16" points="40.55,16.85 45.45,16.85 45.45,51.95 40.55,51.95"/>
<polygon id="0x6476a9320c60" class="l69d16" points="66.35,10.4 71.25,10.4 71.25,58.4 66.35,58.4"/>
<polygon id="0x6476a9320ea0" class="l67d16" points="20.65,46.35 22.35,46.35 22.35,49.65 20.65,49.65"/>
<polygon id="0x6476a93210f0" class="l67d16" points="98.05,46.35 99.75,46.35 99.75,49.65 98.05,49.65"/>
<polygon id="0x6476a9321340" class="l67d16" points="7.75,19.8 9.45,19.8 9.45,23.1 7.75,23.1"/>
<polygon id="0x6476a9321620" class="l67d16" points="110.95,19.8 112.65,19.8 112.65,23.1 110.95,23.1"/>
<use transform="translate(8.6 0)" xlink:href="#MOSEnd"/>
<use transform="translate(8.6 68.8) scale(1 -1)" xlink:href="#MOSEnd_1"/>
<use transform="translate(8.6 0)" xlink:href="#InvChainCoreTap"/>
<use transform="translate(0 0)" xlink:href="#MOSCorner"/>
<use transform="translate(120.4 0) rotate(180) scale(1 -1)" xlink:href="#MOSCorner"/>
<use transform="translate(0 68.8) scale(1 -1)" xlink:href="#MOSCorner_1"/>
<use transform="translate(120.4 68.8) rotate(180)" xlink:href="#MOSCorner_1"/>
<use transform="translate(0 30.1) scale(1 -1)" xlink:href="#MOSRowEdge"/>
<use transform="translate(120.4 30.1) rotate(180)" xlink:href="#MOSRowEdge"/>
<use transform="translate(0 38.7)" xlink:href="#MOSRowEdge_1"/>
<use transform="translate(120.4 38.7) rotate(180) scale(1 -1)" xlink:href="#MOSRowEdge_1"/>
<use transform="translate(12.9 30.1) scale(1 -1)" xlink:href="#MOSSpace"/>
<use transform="translate(86 30.1) scale(1 -1)" xlink:href="#MOSSpace_1"/>
<use transform="translate(8.6 38.7)" xlink:href="#MOSSpace_2"/>
<use transform="translate(86 38.7)" xlink:href="#MOSSpace_4"/>
<use transform="translate(98.9 38.7)" xlink:href="#MOSSpace_5"/>
<use transform="translate(25.8 38.7)" xlink:href="#MOSSpace_3"/>
<text id="0x6476a9320210" class="l68t16" text-anchor="middle" dominant-baseline="central" transform="translate(60.2 68.8) scale(0.5) scale(1 -1)">VDD:</text>
<text id="0x6476a93204c0" class="l68t16" text-anchor="middle" dominant-baseline="central" transform="translate(60.2 0) scale(0.5) scale(1 -1)">VSS:</text>
<text id="0x6476a9320710" class="l68t16" text-anchor="middle" dominant-baseline="central" transform="translate(43 30.1) scale(0.5) scale(1 -1)">in</text>
<text id="0x6476a9320960" class="l69t16" text-anchor="middle" dominant-baseline="central" transform="translate(43 34.4) rotate(90) scale(0.49) scale(1 -1)">outb</text>
<text id="0x6476a9320bb0" class="l69t16" text-anchor="middle" dominant-baseline="central" transform="translate(68.8 34.4) rotate(90) scale(0.49) scale(1 -1)">out</text>
<text id="0x6476a9320df0" class="l67t16" text-anchor="middle" dominant-baseline="central" transform="translate(21.5 48) rotate(90) scale(0.17) scale(1 -1)">VDD:</text>
<text id="0x6476a9321040" class="l67t16" text-anchor="middle" dominant-baseline="central" transform="translate(98.9 48) rotate(90) scale(0.17) scale(1 -1)">VDD:</text>
<text id="0x6476a9321290" class="l67t16" text-anchor="middle" dominant-baseline="central" transform="translate(8.6 21.45) rotate(90) scale(0.17) scale(1 -1)">VSS:</text>
<text id="0x6476a93214e0" class="l67t16" text-anchor="middle" dominant-baseline="central" transform="translate(111.8 21.45) rotate(90) scale(0.17) scale(1 -1)">VSS:</text>
</g>
</svg>